<svg id="Layer_1" data-name="Layer 1" xmlns="http://www.w3.org/2000/svg" viewBox="0 0 463.95 267.27"><defs><style>.cls-1{fill:#005d67;}.cls-2{fill:#17b58b;}.cls-3{fill:#049ca5;}.cls-4{fill:#0aa54b;}.cls-5{fill:#88be40;}.cls-6{fill:#f7941d;}</style></defs><title>logo_CICIL</title><path class="cls-1" d="M72.5,202.69A72.5,72.5,0,1,1,118.1,73.82,15,15,0,0,1,99.22,97.14,42,42,0,0,0,72.5,87.69a42.5,42.5,0,0,0,0,85,42,42,0,0,0,26.83-9.53,15,15,0,0,1,19,23.25A72.68,72.68,0,0,1,72.5,202.69Z"/><path class="cls-2" d="M289.28,202.69a72.5,72.5,0,1,1,45.6-128.87A15,15,0,1,1,316,97.14a42,42,0,0,0-26.72-9.45,42.5,42.5,0,1,0,0,85,42,42,0,0,0,26.83-9.53,15,15,0,1,1,19,23.25A72.66,72.66,0,0,1,289.28,202.69Z"/><path class="cls-3" d="M170.31,202.69a15,15,0,0,1-15-15v-115a15,15,0,0,1,30,0v115A15,15,0,0,1,170.31,202.69Z"/><path class="cls-4" d="M387.38,202.69a15,15,0,0,1-15-15v-115a15,15,0,1,1,30,0v115A15,15,0,0,1,387.38,202.69Z"/><path class="cls-4" d="M387.38,46.28a15,15,0,0,1-15-15V23.4a15,15,0,0,1,30,0v7.88A15,15,0,0,1,387.38,46.28Z"/><path class="cls-3" d="M170.31,46.28a15,15,0,0,1-15-15V23.4a15,15,0,0,1,30,0v7.88A15,15,0,0,1,170.31,46.28Z"/><path class="cls-5" d="M449,202.69a15,15,0,0,1-15-15V15a15,15,0,0,1,30,0V187.69A15,15,0,0,1,449,202.69Z"/><path class="cls-6" d="M218.23,229.88a15,15,0,0,0-21.1-2.15,42.47,42.47,0,0,1-53.64,0,15,15,0,0,0-19,23.26,72.69,72.69,0,0,0,45.76,16.28h0A72.74,72.74,0,0,0,216.09,251,15,15,0,0,0,218.23,229.88Z"/></svg>